<svg width="92" height="20" viewBox="0 0 92 20" fill="none" xmlns="http://www.w3.org/2000/svg">
<path d="M0.596 19H0.232C0.362667 17.712 0.428 16.4893 0.428 15.332L0.428 12.588H0.848V13.4C0.848 14.9493 1.34267 16.2373 2.332 17.264C3.32133 18.272 4.84267 18.776 6.896 18.776C9.584 18.776 10.928 17.8053 10.928 15.864C10.928 15.0613 10.6293 14.3987 10.032 13.876C9.45333 13.3533 8.78133 12.9893 8.016 12.784C7.25067 12.56 6.336 12.2707 5.272 11.916C4.208 11.5427 3.34933 11.132 2.696 10.684C1.10933 9.62 0.316 8.052 0.316 5.98C0.316 4.28133 0.857333 2.90933 1.94 1.864C3.02267 0.818665 4.59067 0.295999 6.644 0.295999C8.28667 0.295999 9.62133 0.641332 10.648 1.332C11.5067 1.332 12.1227 1.052 12.496 0.492H12.86C12.468 2.30267 12.272 3.60933 12.272 4.412V6.288H11.852V5.588C11.852 2.34 10.1253 0.715998 6.672 0.715998C4.07733 0.715998 2.78 1.612 2.78 3.404C2.78 4.3 3.12533 4.98133 3.816 5.448C4.52533 5.91467 5.58933 6.35333 7.008 6.764C8.42667 7.156 9.472 7.52933 10.144 7.884C12.328 9.02267 13.42 10.8333 13.42 13.316C13.42 15.108 12.8693 16.536 11.768 17.6C10.6667 18.664 9.052 19.196 6.924 19.196C5.15067 19.196 3.68533 18.8227 2.528 18.076C2.024 18.076 1.61333 18.132 1.296 18.244C0.997333 18.356 0.764 18.608 0.596 19ZM16.1025 14.436V6.82L14.4785 6.82V6.4H15.1225C15.9439 6.4 16.7092 6.21333 17.4185 5.84C18.1279 5.46667 18.6972 5 19.1265 4.44C19.5745 3.88 19.9292 3.32933 20.1905 2.788C20.4705 2.228 20.6385 1.724 20.6945 1.276H21.1145L21.1145 6.4H24.1665V6.82H21.1145V15.36C21.1145 16.4053 21.2265 17.152 21.4505 17.6C21.6932 18.0293 22.0665 18.244 22.5705 18.244C23.0559 18.244 23.4572 18.02 23.7745 17.572C24.1105 17.1053 24.2785 16.5267 24.2785 15.836H24.6985C24.6985 18.076 23.4012 19.196 20.8065 19.196C19.1079 19.196 17.8945 18.7293 17.1665 17.796C16.4572 16.8627 16.1025 15.7427 16.1025 14.436ZM32.8264 16.844H32.7704C32.4531 17.4973 31.9584 18.0573 31.2864 18.524C30.6144 18.972 29.8117 19.196 28.8784 19.196C27.8331 19.196 26.9371 18.944 26.1904 18.44C25.4437 17.9173 25.0704 17.124 25.0704 16.06C25.0704 15.108 25.4437 14.324 26.1904 13.708C26.9557 13.0733 27.8517 12.644 28.8784 12.42C29.9237 12.1773 31.0624 12.056 32.2944 12.056H32.5744V9.116C32.5744 7.41733 31.9677 6.568 30.7544 6.568C30.0824 6.568 29.6157 6.75467 29.3544 7.128C29.1117 7.48267 28.9904 8.00533 28.9904 8.696C28.9904 9.256 29.0837 9.68533 29.2704 9.984C29.4757 10.264 29.8211 10.3667 30.3064 10.292V10.516C29.6904 10.7027 29.0931 10.796 28.5144 10.796C27.7117 10.796 27.0491 10.6467 26.5264 10.348C26.0037 10.0493 25.7424 9.592 25.7424 8.976C25.7424 8.15467 26.1811 7.492 27.0584 6.988C27.9544 6.46533 29.2237 6.204 30.8664 6.204C33.2744 6.204 34.9917 6.53067 36.0184 7.184C37.0451 7.81867 37.5584 8.77067 37.5584 10.04L37.5584 17.124C37.5584 17.796 37.7544 18.132 38.1464 18.132C38.4824 18.132 38.7344 17.936 38.9024 17.544C39.0704 17.1333 39.1544 16.6853 39.1544 16.2H39.5744C39.5744 18.1973 38.4824 19.196 36.2984 19.196C35.3837 19.196 34.5904 18.9907 33.9184 18.58C33.2464 18.1693 32.8824 17.5907 32.8264 16.844ZM32.5744 16.004L32.5744 12.476H32.3784C31.4451 12.476 30.8197 12.7373 30.5024 13.26C30.1851 13.764 30.0264 14.6507 30.0264 15.92C30.0264 17.2453 30.3624 17.908 31.0344 17.908C31.4077 17.908 31.7531 17.684 32.0704 17.236C32.4064 16.7693 32.5744 16.3587 32.5744 16.004ZM39.9154 19V18.58H41.4834L41.4834 6.82H39.9154V6.4H46.4394V9.368H46.4954C47.2421 7.25867 48.4741 6.204 50.1914 6.204C51.2368 6.204 52.0394 6.428 52.5994 6.876C53.1781 7.324 53.4674 7.97733 53.4674 8.836C53.4674 9.788 53.1594 10.4973 52.5434 10.964C51.9461 11.4307 51.1994 11.664 50.3034 11.664C49.8181 11.664 49.4261 11.608 49.1274 11.496V11.272C49.5754 11.328 49.8834 11.132 50.0514 10.684C50.2194 10.236 50.3034 9.62 50.3034 8.836C50.3034 7.62267 49.9021 7.016 49.0994 7.016C48.3901 7.016 47.7741 7.55733 47.2514 8.64C46.7474 9.704 46.4954 10.6373 46.4954 11.44L46.4954 18.58H48.3434V19H39.9154ZM55.0674 14.436L55.0674 6.82H53.4434V6.4H54.0874C54.9087 6.4 55.674 6.21333 56.3834 5.84C57.0927 5.46667 57.662 5 58.0914 4.44C58.5394 3.88 58.894 3.32933 59.1554 2.788C59.4354 2.228 59.6034 1.724 59.6594 1.276L60.0794 1.276V6.4H63.1314V6.82H60.0794L60.0794 15.36C60.0794 16.4053 60.1914 17.152 60.4154 17.6C60.658 18.0293 61.0314 18.244 61.5354 18.244C62.0207 18.244 62.422 18.02 62.7394 17.572C63.0754 17.1053 63.2434 16.5267 63.2434 15.836H63.6634C63.6634 18.076 62.366 19.196 59.7714 19.196C58.0727 19.196 56.8594 18.7293 56.1314 17.796C55.422 16.8627 55.0674 15.7427 55.0674 14.436ZM69.4673 12.364V12.784C69.4673 15.0427 69.6633 16.6013 70.0553 17.46C70.4659 18.3 71.1753 18.72 72.1833 18.72C73.6019 18.72 74.6566 18.4027 75.3473 17.768C76.0379 17.1147 76.4019 16.2467 76.4393 15.164H76.8593C76.7846 16.5267 76.3179 17.544 75.4593 18.216C74.6006 18.8693 73.4246 19.196 71.9313 19.196C69.5233 19.196 67.6379 18.7013 66.2753 17.712C64.9126 16.7227 64.2313 15.0147 64.2313 12.588C64.2313 10.5347 64.8659 8.95733 66.1353 7.856C67.4046 6.75467 69.0939 6.204 71.2033 6.204C73.0326 6.204 74.4793 6.652 75.5433 7.548C76.6073 8.42533 77.1393 9.65733 77.1393 11.244V12.364L69.4673 12.364ZM69.4953 11.944H72.1553V10.124C72.1553 8.74267 72.0526 7.80933 71.8473 7.324C71.6606 6.82 71.3339 6.568 70.8673 6.568C70.3446 6.568 69.9899 6.91333 69.8033 7.604C69.6353 8.276 69.5326 9.72267 69.4953 11.944ZM78.1967 19V18.58H79.7647V6.82H78.1967V6.4L84.7207 6.4V9.368H84.7767C85.5234 7.25867 86.7554 6.204 88.4727 6.204C89.518 6.204 90.3207 6.428 90.8807 6.876C91.4594 7.324 91.7487 7.97733 91.7487 8.836C91.7487 9.788 91.4407 10.4973 90.8247 10.964C90.2274 11.4307 89.4807 11.664 88.5847 11.664C88.0994 11.664 87.7074 11.608 87.4087 11.496V11.272C87.8567 11.328 88.1647 11.132 88.3327 10.684C88.5007 10.236 88.5847 9.62 88.5847 8.836C88.5847 7.62267 88.1834 7.016 87.3807 7.016C86.6714 7.016 86.0554 7.55733 85.5327 8.64C85.0287 9.704 84.7767 10.6373 84.7767 11.44V18.58H86.6247V19H78.1967Z" fill="#111111"/>
</svg>
